<?xml version="1.0" encoding="UTF-8"?>
<svg id="Calque_1" xmlns="http://www.w3.org/2000/svg" version="1.1" xmlns:xlink="http://www.w3.org/1999/xlink" viewBox="0 0 566.93 566.93">
  <!-- Generator: Adobe Illustrator 29.0.1, SVG Export Plug-In . SVG Version: 2.1.0 Build 192)  -->
  <defs>
    <style>
      .st0 {
        font-family: GCRotaPro-Regular, 'GC Rota Pro';
        font-size: 67.68px;
      }

      .st0, .st1 {
        fill: #fff;
      }

      .st1 {
        font-family: AmatryRegular, Amatry;
        font-size: 151.45px;
      }

      .st2 {
        fill: url(#Dégradé_sans_nom_8);
      }
    </style>
    <linearGradient id="Dégradé_sans_nom_8" data-name="Dégradé sans nom 8" x1="-13.13" y1="13.3" x2="591.77" y2="498.59" gradientUnits="userSpaceOnUse">
      <stop offset=".21" stop-color="#e40d20"/>
      <stop offset="1" stop-color="#76227b"/>
    </linearGradient>
  </defs>
  <path class="st2" d="M294.4,493.18c-7.2,0-14.4-1.86-20.81-5.59l-82.42-48c-15.07-8.78-32.25-13.41-49.68-13.41h-51.48c-22.8,0-41.34-18.55-41.34-41.34v-249.99c0-22.79,18.55-41.34,41.34-41.34h408.31c22.79,0,41.34,18.55,41.34,41.34v249.99c0,22.79-18.55,41.34-41.34,41.34h-48.96c-17.07,0-33.93,4.46-48.77,12.89l-85.77,48.74c-6.31,3.59-13.37,5.38-20.42,5.38Z"/>
  <text class="st1" transform="translate(78.9 275.04)"><tspan x="0" y="0">CAPO</tspan></text>
  <text class="st0" transform="translate(200.59 356.65)"><tspan x="0" y="0">Studio</tspan></text>
</svg>