<?xml version="1.0" encoding="UTF-8"?>
<svg xmlns="http://www.w3.org/2000/svg" viewBox="0 0 595.28 205.28" role="img" aria-label="CAPO Studio">
  <defs>
    <style>
      .capo-text { fill: #ffffff; font-family: AmatryRegular, Amatry, sans-serif; font-size: 119.95px; font-weight: 700; }
      .studio-badge { fill: url(#capo-gradient); }
      .studio-text { fill: #ffffff; font-family: GCRotaPro-Regular, 'GC Rota Pro', sans-serif; font-size: 42.78px; }
    </style>
    <linearGradient id="capo-gradient" x1="373.58" y1="52.36" x2="600.34" y2="163.88" gradientUnits="userSpaceOnUse">
      <stop offset=".21" stop-color="#d72929"/>
      <stop offset="1" stop-color="#76227b"/>
    </linearGradient>
  </defs>
  <path class="studio-badge" d="M471.96,155.63c-2.26,0-4.52-.59-6.54-1.76l-24.76-14.42c-4.44-2.59-9.5-3.95-14.64-3.95h-15.47c-7.16,0-12.99-5.83-12.99-12.99v-43.61c0-7.16,5.83-12.99,12.99-12.99h122.66c7.16,0,12.99,5.83,12.99,12.99v43.61c0,7.16-5.83,12.99-12.99,12.99h-14.71c-5.03,0-10,1.31-14.37,3.8l-25.77,14.64c-1.98,1.13-4.2,1.69-6.42,1.69Z"/>
  <text class="capo-text" transform="translate(49.06 152.89)"><tspan x="0" y="0">CAPO</tspan></text>
  <text class="studio-text" transform="translate(412.74 116.19)"><tspan x="0" y="0">Studio</tspan></text>
</svg>
